<mxfile host="app.diagrams.net" modified="2022-02-11T03:30:29.846Z" agent="5.0 (Windows NT 10.0; Win64; x64) AppleWebKit/537.36 (KHTML, like Gecko) Chrome/98.0.4758.81 Safari/537.36" etag="i3a42mEUPcT4yYSiLOnf" version="16.5.6" type="github">
  <diagram id="KoMX7xQN2vZGde59Y5xR" name="Page-1">
    <mxGraphModel dx="1422" dy="882" grid="1" gridSize="10" guides="1" tooltips="1" connect="1" arrows="1" fold="1" page="1" pageScale="1" pageWidth="827" pageHeight="1169" math="0" shadow="0">
      <root>
        <mxCell id="0" />
        <mxCell id="1" parent="0" />
        <mxCell id="WqC7M9tdgwX8udOdKjSr-3" value="" style="edgeStyle=orthogonalEdgeStyle;rounded=0;orthogonalLoop=1;jettySize=auto;html=1;" edge="1" parent="1" source="WqC7M9tdgwX8udOdKjSr-1" target="WqC7M9tdgwX8udOdKjSr-2">
          <mxGeometry relative="1" as="geometry" />
        </mxCell>
        <mxCell id="WqC7M9tdgwX8udOdKjSr-1" value="" style="rounded=0;whiteSpace=wrap;html=1;" vertex="1" parent="1">
          <mxGeometry x="354" y="120" width="120" height="60" as="geometry" />
        </mxCell>
        <mxCell id="WqC7M9tdgwX8udOdKjSr-5" value="" style="edgeStyle=orthogonalEdgeStyle;rounded=0;orthogonalLoop=1;jettySize=auto;html=1;" edge="1" parent="1" source="WqC7M9tdgwX8udOdKjSr-2" target="WqC7M9tdgwX8udOdKjSr-4">
          <mxGeometry relative="1" as="geometry" />
        </mxCell>
        <mxCell id="WqC7M9tdgwX8udOdKjSr-2" value="" style="whiteSpace=wrap;html=1;rounded=0;" vertex="1" parent="1">
          <mxGeometry x="354" y="230" width="120" height="60" as="geometry" />
        </mxCell>
        <mxCell id="WqC7M9tdgwX8udOdKjSr-4" value="" style="ellipse;whiteSpace=wrap;html=1;rounded=0;" vertex="1" parent="1">
          <mxGeometry x="554" y="230" width="120" height="60" as="geometry" />
        </mxCell>
      </root>
    </mxGraphModel>
  </diagram>
</mxfile>
